# xmcd
# 
# Track frame offsets:
#     150
#     10917
#     26239
#     41902
#     52407
#     64934
#     76319
#     88397
#     100759
#     112659
#     124709
#     136864
#     147807
#     159877
#     173269
#     186689
#     230394
#     252989
#     270969
#     285422
#     301824
# 
# Disc length: 4267
# 
# Revision: 1
# Processed by: cddbd v1.5.2PL0 Copyright (c) Steve Scherf et al.
# Submitted via: fre:ac v1.0.17
# 
DISCID=1a10a915
DTITLE=B. B. KING - THE COMPLETE RPM - KENT RECORDING BOX
DYEAR=2015
DGENRE=Blues
TTITLE0=Talkin' The Blue - take 2
TTITLE1=String Bean
TTITLE2=Soul Beat (aka Powerhouse) - take 2
TTITLE3=Blues For Me (aka Groovin' Twist)
TTITLE4=Walkin'
TTITLE5=Rambler
TTITLE6=Confessin'
TTITLE7=Don't Touch (aka Don't You Want A Man Like Me)
TTITLE8=Feedin' The Rock
TTITLE9=King Of Guitar - take 1
TTITLE10=King Of Guitar
TTITLE11=Step It Up (aka Two Step Rock)
TTITLE12=Low Rider (Broke And Hungry)
TTITLE13=Jumpin' With B.B.
TTITLE14=Night Long
TTITLE15=Blues With B.B.
TTITLE16=Calypso Jazz (aka Going South)
TTITLE17=Slidin' And Glidin' (aka Really The Blues)
TTITLE18=Fusion Jazz - take 1
TTITLE19=King's Rock Jazz
TTITLE20=Slidin' And Glidin' (aka Really The Blues) - alt. take
EXTD=
EXTT0=
EXTT1=
EXTT2=
EXTT3=
EXTT4=
EXTT5=
EXTT6=
EXTT7=
EXTT8=
EXTT9=
EXTT10=
EXTT11=
EXTT12=
EXTT13=
EXTT14=
EXTT15=
EXTT16=
EXTT17=
EXTT18=
EXTT19=
EXTT20=
PLAYORDER=
